<mxfile host="app.diagrams.net" modified="2024-04-09T16:41:58.215Z" agent="Mozilla/5.0 (Windows NT 10.0; Win64; x64) AppleWebKit/537.36 (KHTML, like Gecko) Chrome/123.0.0.0 Safari/537.36" etag="NJW3nh1mYMDyzMxmG71n" version="24.2.3" type="device">
  <diagram name="Page-1" id="c7558073-3199-34d8-9f00-42111426c3f3">
    <mxGraphModel dx="1443" dy="1374" grid="1" gridSize="10" guides="1" tooltips="1" connect="1" arrows="1" fold="1" page="1" pageScale="1" pageWidth="1169" pageHeight="827" background="none" math="0" shadow="0">
      <root>
        <mxCell id="0" />
        <mxCell id="1" parent="0" />
        <mxCell id="AJG6KD-9XLQWNNLqgrXx-134" value="" style="rounded=0;whiteSpace=wrap;html=1;fillColor=#f5f5f5;strokeColor=#666666;fontColor=#333333;" vertex="1" parent="1">
          <mxGeometry width="1000" height="720" as="geometry" />
        </mxCell>
        <mxCell id="AJG6KD-9XLQWNNLqgrXx-136" value="" style="rounded=1;whiteSpace=wrap;html=1;" vertex="1" parent="1">
          <mxGeometry x="80" y="540" width="150" height="120" as="geometry" />
        </mxCell>
        <mxCell id="AJG6KD-9XLQWNNLqgrXx-133" value="" style="rounded=1;whiteSpace=wrap;html=1;" vertex="1" parent="1">
          <mxGeometry x="350" y="130" width="150" height="120" as="geometry" />
        </mxCell>
        <mxCell id="AJG6KD-9XLQWNNLqgrXx-129" value="" style="rounded=1;whiteSpace=wrap;html=1;" vertex="1" parent="1">
          <mxGeometry x="740" y="550" width="180" height="120" as="geometry" />
        </mxCell>
        <mxCell id="AJG6KD-9XLQWNNLqgrXx-124" value="" style="rounded=1;whiteSpace=wrap;html=1;" vertex="1" parent="1">
          <mxGeometry x="82" y="410" width="286" height="100" as="geometry" />
        </mxCell>
        <mxCell id="AJG6KD-9XLQWNNLqgrXx-111" value="" style="rounded=1;whiteSpace=wrap;html=1;" vertex="1" parent="1">
          <mxGeometry x="546" y="140" width="370" height="380" as="geometry" />
        </mxCell>
        <mxCell id="AJG6KD-9XLQWNNLqgrXx-107" value="" style="rounded=1;whiteSpace=wrap;html=1;" vertex="1" parent="1">
          <mxGeometry x="80" y="60" width="210" height="260" as="geometry" />
        </mxCell>
        <mxCell id="4" value="Sensor" style="whiteSpace=wrap;align=center;verticalAlign=middle;fontStyle=1;strokeWidth=3;fillColor=#FFFFCC" parent="1" vertex="1">
          <mxGeometry x="126" y="80" width="100" height="60" as="geometry" />
        </mxCell>
        <mxCell id="14" value="Sensor" style="whiteSpace=wrap;align=center;verticalAlign=middle;fontStyle=1;strokeWidth=3;fillColor=#FFFFCC" parent="1" vertex="1">
          <mxGeometry x="126" y="240" width="100" height="60" as="geometry" />
        </mxCell>
        <mxCell id="37" value="" style="edgeStyle=none;noEdgeStyle=1;strokeColor=#001DBC;strokeWidth=2;entryX=0;entryY=0;entryDx=0;entryDy=0;fillColor=#0050ef;startArrow=none;startFill=0;" parent="1" source="4" target="AJG6KD-9XLQWNNLqgrXx-98" edge="1">
          <mxGeometry width="100" height="100" relative="1" as="geometry">
            <mxPoint x="366" y="19" as="sourcePoint" />
            <mxPoint x="322" y="110" as="targetPoint" />
          </mxGeometry>
        </mxCell>
        <mxCell id="AJG6KD-9XLQWNNLqgrXx-96" value="" style="endArrow=none;dashed=1;html=1;rounded=0;" edge="1" parent="1">
          <mxGeometry width="50" height="50" relative="1" as="geometry">
            <mxPoint x="166" y="209" as="sourcePoint" />
            <mxPoint x="166" y="159" as="targetPoint" />
          </mxGeometry>
        </mxCell>
        <mxCell id="AJG6KD-9XLQWNNLqgrXx-97" value="" style="edgeStyle=none;noEdgeStyle=1;strokeColor=#001DBC;strokeWidth=2;exitX=1;exitY=0.5;exitDx=0;exitDy=0;entryX=0;entryY=1;entryDx=0;entryDy=0;fillColor=#0050ef;startArrow=none;startFill=0;" edge="1" parent="1" source="14" target="AJG6KD-9XLQWNNLqgrXx-98">
          <mxGeometry width="100" height="100" relative="1" as="geometry">
            <mxPoint x="226" y="258.5" as="sourcePoint" />
            <mxPoint x="316" y="259" as="targetPoint" />
          </mxGeometry>
        </mxCell>
        <mxCell id="AJG6KD-9XLQWNNLqgrXx-100" value="" style="edgeStyle=orthogonalEdgeStyle;rounded=0;orthogonalLoop=1;jettySize=auto;html=1;startArrow=none;startFill=0;strokeWidth=2;fillColor=#0050ef;strokeColor=#001DBC;exitX=1;exitY=0.5;exitDx=0;exitDy=0;" edge="1" parent="1" source="AJG6KD-9XLQWNNLqgrXx-98" target="AJG6KD-9XLQWNNLqgrXx-99">
          <mxGeometry relative="1" as="geometry">
            <mxPoint x="510" y="190" as="sourcePoint" />
          </mxGeometry>
        </mxCell>
        <mxCell id="AJG6KD-9XLQWNNLqgrXx-98" value="MQTTÂ &#xa;Broker" style="whiteSpace=wrap;align=center;verticalAlign=middle;fontStyle=1;strokeWidth=3;fillColor=#ffe6cc;strokeColor=#d79b00;" vertex="1" parent="1">
          <mxGeometry x="371" y="161" width="110" height="60" as="geometry" />
        </mxCell>
        <mxCell id="AJG6KD-9XLQWNNLqgrXx-103" style="edgeStyle=orthogonalEdgeStyle;rounded=0;orthogonalLoop=1;jettySize=auto;html=1;exitX=0.5;exitY=1;exitDx=0;exitDy=0;entryX=0.5;entryY=0;entryDx=0;entryDy=0;strokeWidth=2;fillColor=#0050ef;strokeColor=#001DBC;startArrow=none;startFill=0;" edge="1" parent="1" source="AJG6KD-9XLQWNNLqgrXx-99" target="AJG6KD-9XLQWNNLqgrXx-102">
          <mxGeometry relative="1" as="geometry" />
        </mxCell>
        <mxCell id="AJG6KD-9XLQWNNLqgrXx-99" value="MQTT&#xa;Kafka&#xa;Brige" style="whiteSpace=wrap;align=center;verticalAlign=middle;fontStyle=1;strokeWidth=3;fillColor=#dae8fc;strokeColor=#6c8ebf;" vertex="1" parent="1">
          <mxGeometry x="692.5" y="160" width="100" height="60" as="geometry" />
        </mxCell>
        <mxCell id="AJG6KD-9XLQWNNLqgrXx-102" value="Apache&#xa;Kafka" style="whiteSpace=wrap;align=center;verticalAlign=middle;fontStyle=1;strokeWidth=3;fillColor=#dae8fc;strokeColor=#6c8ebf;" vertex="1" parent="1">
          <mxGeometry x="692.5" y="320" width="100" height="60" as="geometry" />
        </mxCell>
        <mxCell id="AJG6KD-9XLQWNNLqgrXx-104" value="NOSQL&lt;div&gt;DB&lt;/div&gt;" style="shape=cylinder3;whiteSpace=wrap;html=1;boundedLbl=1;backgroundOutline=1;size=15;fillColor=#d5e8d4;strokeColor=#82b366;" vertex="1" parent="1">
          <mxGeometry x="799.5" y="570" width="60" height="80" as="geometry" />
        </mxCell>
        <mxCell id="AJG6KD-9XLQWNNLqgrXx-108" value="API Server" style="whiteSpace=wrap;align=center;verticalAlign=middle;fontStyle=1;strokeWidth=3;fillColor=#ffff88;strokeColor=#36393d;" vertex="1" parent="1">
          <mxGeometry x="592.5" y="430" width="100" height="60" as="geometry" />
        </mxCell>
        <mxCell id="AJG6KD-9XLQWNNLqgrXx-109" value="Database&#xa;Adapter" style="whiteSpace=wrap;align=center;verticalAlign=middle;fontStyle=1;strokeWidth=3;fillColor=#ffff88;strokeColor=#36393d;" vertex="1" parent="1">
          <mxGeometry x="779.5" y="430" width="100" height="60" as="geometry" />
        </mxCell>
        <mxCell id="AJG6KD-9XLQWNNLqgrXx-110" value="&lt;font style=&quot;font-size: 16px;&quot;&gt;Publishers&lt;/font&gt;" style="text;html=1;align=center;verticalAlign=middle;whiteSpace=wrap;rounded=0;" vertex="1" parent="1">
          <mxGeometry x="156" y="30" width="60" height="30" as="geometry" />
        </mxCell>
        <mxCell id="AJG6KD-9XLQWNNLqgrXx-112" value="&lt;font style=&quot;font-size: 16px;&quot;&gt;Kafka Server&lt;/font&gt;" style="text;html=1;align=center;verticalAlign=middle;whiteSpace=wrap;rounded=0;" vertex="1" parent="1">
          <mxGeometry x="706" y="95" width="60" height="30" as="geometry" />
        </mxCell>
        <mxCell id="AJG6KD-9XLQWNNLqgrXx-116" value="" style="endArrow=classic;html=1;rounded=0;exitX=0;exitY=1;exitDx=0;exitDy=0;entryX=0.5;entryY=0;entryDx=0;entryDy=0;strokeWidth=2;fillColor=#0050ef;strokeColor=#001DBC;" edge="1" parent="1" source="AJG6KD-9XLQWNNLqgrXx-102" target="AJG6KD-9XLQWNNLqgrXx-108">
          <mxGeometry width="50" height="50" relative="1" as="geometry">
            <mxPoint x="692.5" y="350" as="sourcePoint" />
            <mxPoint x="612.5" y="240" as="targetPoint" />
          </mxGeometry>
        </mxCell>
        <mxCell id="AJG6KD-9XLQWNNLqgrXx-117" value="" style="endArrow=classic;html=1;rounded=0;exitX=1;exitY=1;exitDx=0;exitDy=0;entryX=0.5;entryY=0;entryDx=0;entryDy=0;strokeWidth=2;fillColor=#0050ef;strokeColor=#001DBC;" edge="1" parent="1" source="AJG6KD-9XLQWNNLqgrXx-102" target="AJG6KD-9XLQWNNLqgrXx-109">
          <mxGeometry width="50" height="50" relative="1" as="geometry">
            <mxPoint x="792.5" y="350" as="sourcePoint" />
            <mxPoint x="842.5" y="430" as="targetPoint" />
          </mxGeometry>
        </mxCell>
        <mxCell id="AJG6KD-9XLQWNNLqgrXx-120" value="" style="endArrow=classic;html=1;rounded=0;exitX=0.5;exitY=1;exitDx=0;exitDy=0;entryX=0.5;entryY=0;entryDx=0;entryDy=0;strokeWidth=2;fillColor=#0050ef;strokeColor=#001DBC;entryPerimeter=0;" edge="1" parent="1" source="AJG6KD-9XLQWNNLqgrXx-109" target="AJG6KD-9XLQWNNLqgrXx-104">
          <mxGeometry width="50" height="50" relative="1" as="geometry">
            <mxPoint x="706.5" y="580" as="sourcePoint" />
            <mxPoint x="743.5" y="660" as="targetPoint" />
          </mxGeometry>
        </mxCell>
        <mxCell id="AJG6KD-9XLQWNNLqgrXx-121" value="Dashboard&#xa;Backend" style="whiteSpace=wrap;align=center;verticalAlign=middle;fontStyle=1;strokeWidth=3;fillColor=#eeeeee;strokeColor=#36393d;" vertex="1" parent="1">
          <mxGeometry x="243" y="431" width="100" height="60" as="geometry" />
        </mxCell>
        <mxCell id="AJG6KD-9XLQWNNLqgrXx-122" value="NGINX&#xa;proxy" style="whiteSpace=wrap;align=center;verticalAlign=middle;fontStyle=1;strokeWidth=3;fillColor=#eeeeee;strokeColor=#36393d;" vertex="1" parent="1">
          <mxGeometry x="108" y="431" width="100" height="60" as="geometry" />
        </mxCell>
        <mxCell id="AJG6KD-9XLQWNNLqgrXx-123" value="Dashboard" style="whiteSpace=wrap;align=center;verticalAlign=middle;fontStyle=1;strokeWidth=3;fillColor=#cdeb8b;strokeColor=#36393d;" vertex="1" parent="1">
          <mxGeometry x="108" y="570" width="100" height="60" as="geometry" />
        </mxCell>
        <mxCell id="AJG6KD-9XLQWNNLqgrXx-125" value="" style="endArrow=classic;html=1;rounded=0;strokeWidth=2;fillColor=#0050ef;strokeColor=#001DBC;exitX=0;exitY=0.5;exitDx=0;exitDy=0;entryX=1;entryY=0.5;entryDx=0;entryDy=0;" edge="1" parent="1" source="AJG6KD-9XLQWNNLqgrXx-108" target="AJG6KD-9XLQWNNLqgrXx-121">
          <mxGeometry width="50" height="50" relative="1" as="geometry">
            <mxPoint x="436.5" y="580" as="sourcePoint" />
            <mxPoint x="386.5" y="660" as="targetPoint" />
          </mxGeometry>
        </mxCell>
        <mxCell id="AJG6KD-9XLQWNNLqgrXx-126" value="&lt;font style=&quot;font-size: 16px;&quot;&gt;Dashboard&lt;/font&gt;&lt;div style=&quot;font-size: 16px;&quot;&gt;&lt;font style=&quot;font-size: 16px;&quot;&gt;Server&lt;/font&gt;&lt;/div&gt;" style="text;html=1;align=center;verticalAlign=middle;whiteSpace=wrap;rounded=0;" vertex="1" parent="1">
          <mxGeometry x="183" y="360" width="60" height="30" as="geometry" />
        </mxCell>
        <mxCell id="AJG6KD-9XLQWNNLqgrXx-127" value="" style="endArrow=classic;html=1;rounded=0;entryX=0.5;entryY=0;entryDx=0;entryDy=0;strokeWidth=2;fillColor=#0050ef;strokeColor=#001DBC;exitX=0.5;exitY=1;exitDx=0;exitDy=0;" edge="1" parent="1" source="AJG6KD-9XLQWNNLqgrXx-122" target="AJG6KD-9XLQWNNLqgrXx-123">
          <mxGeometry width="50" height="50" relative="1" as="geometry">
            <mxPoint x="272.5" y="620" as="sourcePoint" />
            <mxPoint x="222.5" y="700" as="targetPoint" />
          </mxGeometry>
        </mxCell>
        <mxCell id="AJG6KD-9XLQWNNLqgrXx-128" value="" style="endArrow=classic;html=1;rounded=0;entryX=1;entryY=0.5;entryDx=0;entryDy=0;strokeWidth=2;fillColor=#0050ef;strokeColor=#001DBC;exitX=0;exitY=0.5;exitDx=0;exitDy=0;" edge="1" parent="1" source="AJG6KD-9XLQWNNLqgrXx-121" target="AJG6KD-9XLQWNNLqgrXx-122">
          <mxGeometry width="50" height="50" relative="1" as="geometry">
            <mxPoint x="227.29000000000002" y="530" as="sourcePoint" />
            <mxPoint x="227.29000000000002" y="609" as="targetPoint" />
          </mxGeometry>
        </mxCell>
        <mxCell id="AJG6KD-9XLQWNNLqgrXx-130" value="&lt;font style=&quot;font-size: 16px;&quot;&gt;DB Server&lt;/font&gt;" style="text;html=1;align=center;verticalAlign=middle;whiteSpace=wrap;rounded=0;" vertex="1" parent="1">
          <mxGeometry x="670" y="595" width="60" height="30" as="geometry" />
        </mxCell>
        <mxCell id="AJG6KD-9XLQWNNLqgrXx-137" value="&lt;font style=&quot;font-size: 16px;&quot;&gt;HiveMQ&lt;/font&gt;" style="text;html=1;align=center;verticalAlign=middle;whiteSpace=wrap;rounded=0;" vertex="1" parent="1">
          <mxGeometry x="390" y="95" width="60" height="30" as="geometry" />
        </mxCell>
        <mxCell id="AJG6KD-9XLQWNNLqgrXx-138" value="&lt;font style=&quot;font-size: 16px;&quot;&gt;Web&lt;/font&gt;" style="text;html=1;align=center;verticalAlign=middle;whiteSpace=wrap;rounded=0;" vertex="1" parent="1">
          <mxGeometry x="240" y="585" width="60" height="30" as="geometry" />
        </mxCell>
      </root>
    </mxGraphModel>
  </diagram>
</mxfile>
